<svg id="PS" xmlns="http://www.w3.org/2000/svg" width="940" height="703" viewBox="0 0 940 703">
  <title>PS</title>
  <g id="P">
    <path d="M552.12,222.46s0.78,30.9,1.06,46.35c0.27,14.71-5,27.53-13.26,39.46-5.32,7.65-10.65,15.43-14.75,23.76-10,20.31-68,59.29-78.36,68.92a111.2,111.2,0,0,1-37.61,23.18c-22,8.29-26.29,20.27-21,45.27,8,37.91,13.13,76,10.51,115-1.75,26-.5,52.26-2.84,78.2-2.2,24.3-33.25,59.81-67.52,43.69-5.83-2.74-13.42-2.6-20.15-2.38-17.12.57-20.43-2-20.17-19.39,0.11-7.6,2.68-15.16,2.72-22.75q0.26-48.68-.42-97.37c-0.35-24.89-1.36-49.76-2-74.64-0.08-3.06.3-6.15,0.15-9.2-0.93-18.78-3.08-20.62-21.92-19.85-6.51.27-13,0-20.2,0-28.6,5.63-55.41-5.77-82.77-12.44-17.2-4.2-28.27-17.14-27.93-30.37a33.25,33.25,0,0,1,5.35-17c15.85-23.28,39.47-32.85,66.49-33.45,14.72-.33,29.59,2.24,44.26,4.4,11.47,1.68,18.3-2.24,18.22-13.84-0.08-13-1.85-25.91-2.92-38.85-0.13-1.52-.65-3-0.76-4.53-1.92-27.73-3.87-55.47-5.68-83.21-1.72-26.36-3.05-52.76-5-79.1-0.83-11-2.82-22-4.49-33-1.18-7.73-7.19-9.61-12.9-7.12-16.06,7-31,17.1-47.59,22.31-23.92,7.52-32.31,31.07-50.62,44.32-17,12.28-30.91,28.67-46.86,42.46-4.91,4.24-11.91,7.75-18.26,8.34-20,1.86-39.7.63-57.58-10.48-8.59-5.34-11.89-20.39-4-29.53,17.43-20.25,35.46-40.06,54.26-59,9.62-9.71,21.6-17.06,32.19-25.87,4.68-3.89,10.11-8,12.55-13.28C120,74.77,135,70.83,150.55,65.74c16.07-5.25,31-13.9,46.66-20.47,13.37-5.61,27.09-10.4,40.67-15.51,3.22-1.21,7.65-1.28,9.55-3.54C257.86,13.83,272.7,10.45,287,8.4c13.73-2,28.1-.65,42.06.62,16.36,1.48,32.52,5.25,48.89,6.62,24.32,2,45.21,10.94,65.57,24.47,32.88,21.86,59.38,50.38,84.64,79.61,13.42,15.53,23.54,35.48,23.44,58.41-0.07,14.78.5,44.33,0.5,44.33m-111.41,21.8c-4.48-24.63-7.46-50.35-23.74-70.5-13.83-17.12-30.1-32.32-45.81-47.83-2.37-2.34-8.83-3.62-11.21-2.06-3,2-5.4,7.44-5.23,11.27q1.34,31.48,4.19,62.89Q364,254.1,370,310.07a92.37,92.37,0,0,0,6.21,24.37c3.19,7.89,9.85,9.82,16.69,3.92,9.28-8,18.61-16.11,26.88-25.12,12-13.07,23.26-27,22.78-46.25C442.35,259.4,441.34,251.83,440.71,244.26Z" transform="translate(-8.8 -7.06)"/>
  </g>
  <g id="S">
    <path d="M744.61,7.06c17.35,1.76,35.58.72,51.86,5.85,33.93,10.69,62.07,30,78.72,63.54,7.62,15.34,20,28.46,26.63,44.1,5.14,12.14,4.89,26.61,6.67,40.1,2.24,17-2.42,33.59-3.47,50.21-1.55,24.55-14.82,38.12-33.61,47.08-24.17,11.52-50,10.76-74.34-.77-14.56-6.9-16-13.75-10.59-30.24,6.61-20.19,12.26-40.44,3.69-61.54-1.57-3.86-2.51-8.19-4.9-11.45-13-17.77-26-35.67-39.89-52.73-11.32-13.87-22.24-13-33,1.09A51.66,51.66,0,0,0,701.63,140a131,131,0,0,1-.78,31.87C696,203,703.6,232.06,723.55,254.56c18.77,21.16,41.83,39.57,65.77,54.83,32.38,20.64,63.9,41.75,90.07,70,31.21,33.74,49.15,74.14,61.81,118,8.55,29.6,6.87,59.22,7.41,89,0.21,11.52-.79,23.11.17,34.55,1.7,20.15-7.17,37.3-17.17,52.67-11.58,17.8-31.83,27.4-51.87,30.88a442.93,442.93,0,0,1-85.11,6c-13.11-.29-26.67-8.22-38.88-14.8-27.73-14.93-49-37.5-68.55-61.79-15.6-19.34-19.91-43.44-28.83-65.6-8-19.8-13.74-40.77-23.94-59.32C625,491.86,612,476.26,598.56,461.78c-9.34-10.09-9.27-20.92-7.38-32,1.74-10.21,8.44-17.33,19.83-19.9,6.42-1.45,11.78-7.17,18.19-9.16,15.23-4.72,30.66-10.92,46.27-11.82,21.61-1.25,39,16.75,47,36.15,2.87,6.92,6.79,13.41,10.39,20,0.9,1.65,3,2.75,3.57,4.44,6.41,17.62,18.92,32,23.63,50.94,7.17,28.74,16.55,57.05,26.84,84.86,8.18,22.12,23.28,39.72,44.88,50.28,3.41,1.66,11.35-.1,13.56-3a83.1,83.1,0,0,0,11.75-23.22c7.64-22.54,6.1-45.85,4.09-69.06a14.09,14.09,0,0,0-2.45-6.42c-10.73-15.63-21.34-31.36-32.53-46.66-8.53-11.67-18.17-22.52-26.77-34.14A226.75,226.75,0,0,0,740,396.78c-7.55-4.89-14.28-11.5-20.21-18.34a166.54,166.54,0,0,0-44-35.71c-25-14.31-42.94-35.83-55.28-62.15C616,270.86,609,262.31,603.7,252.9a29.36,29.36,0,0,1-4-13c-0.94-34.12-4.16-68.49-1.19-102.29,2.14-24.28,10.69-48.75,26.08-69.11,10.2-13.5,16.24-30.13,33-38.74,25.25-13,51.06-22.06,79.83-20.62l6.9,0.33Z" transform="translate(-8.8 -7.06)"/>
  </g>
</svg>
