<?xml version="1.0" encoding="utf-8"?>
<!-- Generator: Adobe Illustrator 19.2.1, SVG Export Plug-In . SVG Version: 6.00 Build 0)  -->
<svg version="1.1" id="Layer_1" xmlns="http://www.w3.org/2000/svg" xmlns:xlink="http://www.w3.org/1999/xlink" x="0px" y="0px"
	 viewBox="0 0 960.1 960.1" style="enable-background:new 0 0 960.1 960.1;" xml:space="preserve">
<style type="text/css">
	.st0{stroke:#FFFFFF;stroke-width:5;stroke-miterlimit:10;}
</style>
<g>
	<path class="st0" d="M322.1,771.4c0-22.6,0.2-42.9,0-63.3c-0.7-56.8-1.3-113.6-2.6-170.3c-0.5-19.9,7.6-34.4,22.9-46.1
		c16.8-12.8,32.3-27.6,53.6-33.2c1.9-0.5,3.9-1.9,5.7-1.7c15.5,2,16.6-8.6,16.4-19.4c0-10-0.9-19.9-2.7-29.7c-0.6-3.1-6-6.8-9.6-7.4
		c-7-1.1-14.7,1.5-21.3-0.5c-7.5-2.2-16.1-6-20.6-11.8c-10.4-13.5-19.4-28.2-27.6-43.2c-4.1-7.5-4.9-16.7-7.8-24.9
		c-2.1-6-5.2-11.7-9.2-20.5c-2.5,5.8-4.3,7.8-4.1,9.7c1.3,15,3.3,30,4.5,45.1c1.4,17,3.8,34.2,2.7,51.2
		c-1.1,18.4-11.9,25.2-30.1,22.8c-3.2-0.5-6.4-0.8-9.6-0.8c-9.4,0.3-12.5-4.8-12.9-13.4c-1.5-32.3-2.8-64.6-5-96.8
		s-5.5-64.5-8.5-96.7c-0.1-1.5-1.1-2.9-2.5-6.4c-6,10.5-9.6,21.2-16.6,28.2c-15.9,15.9-32.8,30.7-50.7,44.3
		c-8.4,6.3-12.1,12.5-10,22c6.9,31.6,4.8,63.6,3.9,95.5c-0.7,24.3-10.8,32.6-34.5,28.4c-16.5-2.9-15-2.9-14.4-19.2
		c1-26.7,0.2-53.4-0.5-80.1c-0.6-25.7-1-24.6-26.2-26.9c-12.7-1.1-25.3-6.1-37.2-11.2c-9.6-4.1-8.5-12.5-3.4-20.2
		c9.5-14.5,25.8-19.9,46.7-15.1c7.7,1.8,12.4,0.1,11.8-8c-2.7-40.6-5.8-81.1-8.9-121.6c-0.1-1.4-1.2-2.8-2.6-5.7
		c-13.6,8.3-29.1,11.4-39.2,25.5C63.3,162,52,172,41.5,182.3c-7.8,7.6-30,5.8-36-3.3c-2.1-3.1-2.1-9.7-0.1-13.1
		c4.5-7.9,10.4-15.1,16.4-22c21.9-25.5,48.9-43.1,78.7-59.2c27.6-15,53.1-12.9,80.1-7.1c22.3,4.8,35.6,23.1,49.7,39.4
		c6,6.9,11.8,13.8,21,20.5c-0.4-7.7,0.1-15.7-1.3-23.2c-3.9-20.5,10.8-38.7,31.4-38.2c12.3,0.3,17.9,5.5,18.4,18.3
		c1,24.3,1.5,48.6,2.5,73c0.2,4.4,1.3,8.8,2,13.2l3.2,0.4c1.4-2.5,2.7-5,3.8-7.7c7.4-21,14.3-42.1,22.4-62.8
		c2.1-5.4,7.5-10.4,12.6-13.7c12.8-8.1,22.5-20.6,39.4-23.5c14.5-2.5,23.3,3.2,31,12.7c5.4,6.9,9.8,14.6,13,22.7
		c7.9,19.5,1,33.8-19,38.4c-4.6,1.1-11.2-1-15.1-4c-22.4-16.7-27.7-16.3-32.9,10.4c-4.6,23.6-3.8,48.2-4.7,72.5
		c-0.2,6.9,4.5,9.6,10.3,4.6c11.9-10,25.4-11.1,40.2-9.5c10.3,1,20.8,0.6,31-1.2c12.6-2,17.3,5.5,18.7,14.9
		c2.1,13.6,1.7,27.6,3.1,41.4c1.6,15.8,5,31.4,5.9,47.1c0.9,14.6-0.7,29.4-0.7,44c-0.1,13.9,0,27.7,0.7,41.5
		c0.3,5.4,1.6,10.7,3.7,15.7c5.3,12.9-2.3,41.5-14.8,51.9c3.2,4.7,6,9.9,9.9,14.1c2,2.1,6.1,3.3,9.2,3.2c10.5-0.4,21.3-3.5,31.4-1.8
		c5.4,0.9,12.8,8.8,13.8,14.5c3.8,21.9,5.6,44.2,7.6,66.4c4,44.1,6.9,88.3,12,132.2c1.7,14.7,7.9,29.2,13.6,43.1
		c4.6,11.1,12.9,11.8,19.9,1.8c15.4-22.2,26.8-46.2,24.3-74.3c-3.6-40.5-7.9-80.9-11.8-121.3c-1.4-14.3-2.6-28.5-4-42.8
		c-0.3-2.8-1.1-5.5-2.3-8c-7-14.3-2.6-26.3,10-36.4c17-13.7,37.2-10,56-12.7c43.5-6.2,87.2-10.5,130.7-16.1
		c9.7-1.2,19.1-5.6,28.8-6.5c25.2-2.2,47.5,7.4,69.4,18.4c27.2,13.7,50.5,31.6,68.3,56.5c10.6,14.9,4.3,36.9-12.9,43.6
		c-15.3,6-25.2,3.5-37-8.4c-19.8-20-41.1-38.1-69.3-44.9c-5.4-1.3-11.4-0.1-17.1,0c0.7,6.1-0.7,13.7,2.5,18.1
		c8.6,11.9,18.2,23,28.8,33.1c21.1,20,44.6,37.7,64.4,58.8c24.9,26.4,40.7,58.8,43.5,95.2c1.6,19.7,3.6,39.9-4.4,60.1
		c-8.9,22.4-27.8,30.7-46,41c-16.1,9.1-33,10.9-50.9,5.5c-6.3-1.9-48.1-7.5-57.8-20.2c-4.7-6.2-11.7-10.5-17.5-15.9
		c-11.2-10.2-22.2-20.6-34.6-32c0.8,6.6,1.4,12.7,2.1,18.8c0.9,8.3,2.7,16.6,2.6,24.9c-0.2,14.7-4.5,18.8-19.1,22
		c-4.1,0.9-7.7,3.8-11.7,5.4c-14.9,5.6-27.7-3-29.6-18.8c-2.6-22.1-7.5-44-8.5-66.1c-1.2-26.2-0.2-52.6,1.5-78.9
		c2.6-39.8-0.8-78.8-11.9-117.1c-1-3.4-3.6-6.4-7.3-12.6c-2.5,6.6-5,10-4.8,13.4c0.9,23.1,1.7,46.2,3.6,69.2
		c2.1,25,5.9,49.8,7.8,74.7c0.6,8-1.7,16.8-4.7,24.4c-10.1,26-18.9,52.8-32.3,77c-17.2,31.1-48.5,40-81.8,40.6
		c-12.1,0.2-23.2-6.6-28.7-18.6c-10.6-23-20.8-46.2-31.1-69.4c-0.6,2.7-2,6.9-2.5,11.2c-3,27.6-16.9,49.3-36.4,68.1
		c-18.1,17.4-35.2,35.6-62.3,39.7c-28.4,4.3-45.8-4-56.8-30c-13.8,13.6-27,28.3-42,40.7c-8.9,7.3-19.4,12.5-30.6,15.2
		c-16.8,4-45.5-13.5-54.8-30.9c-1.7-3.1-3.2-6.2-6.6-12.7c-4.4,7.1-8.4,11.8-10.4,17.2c-7.5,21.5-24.5,28.7-44.9,31.3
		c-2,0.2-4,0.2-6,0.6c-27,5.2-44.1-10-60.3-28.4c-16.8-19.1-22.2-42.9-29.2-66.1c-5.8-19.6-13.1-38.3-26.1-54.6
		c-8.7-10.9-4.8-24.5,7.7-30.7c6.3-3.1,12.5-6.7,19.2-9c15.6-5.3,23.3-2.9,29.9,11.9C78,724,86.4,745.3,94,766.9
		c5.5,15.7,8.7,32.3,13.9,48.1c1.8,5.4,5.9,10.4,10.1,14.6c9.4,9.4,14.6,8.2,18.1-4.3c7.4-26.5,4.7-51-10.5-75.3
		c-18.5-29.5-41.8-54.8-65.1-80.2c-6.4-6.9-15.2-11.7-20.9-18.9c-6.8-8.6-11.4-18.9-17.1-28.4c-3.2-5.3-6.8-10.4-9.5-16
		c-2.2-4.6-5-9.8-4.8-14.6C10.2,553,8.9,513,34.6,480.2c5.9-7.5,16.5-13.2,26-15.6c37.4-9.8,65-2.2,85.1,35.2
		c14.6,27.1,20,54.4,15,84.8c-4.8,28.5-31.6,35.4-51.6,25.8c-8.9-4.3-7.9-12.5-5.3-19.8c9.4-26.7-1.9-48.4-16.8-68.9
		c-3.1-4.3-22.9-0.1-23.6,5.4c-5.4,40.8-4.5,79.5,33.2,108c18.9,14.3,35.6,31.7,52.3,48.6c7.2,7.3,12,16.9,17.8,25.5
		c1.8,2.7,3.2,5.6,4.7,8.4l4.4-2.5c0-5.6,1.1-11.5-0.2-16.8c-7-29.8-10.5-60-7.1-90.4c4.1-37.1,3.8-75.1,19.4-110.1
		c4.5-10.1,8.7-20.6,14.7-29.9c15.4-24.1,42.7-24.6,61.1,1.1c14.5,20.2,25.6,43,36.6,65.5c6.3,13,1,29.4-9,32.4
		c-18.8,5.7-29.1,6-38.7-11.8c-5.3-9.8-9.5-20.3-14.9-30.1c-1.7-3.2-5.6-5.2-8.4-7.7c-2.2,3-5.7,5.8-6.3,9.2
		c-2.7,14.8-4.9,29.8-6.8,44.8c-1.9,15.4-4.4,30.9-4.4,46.4c0,15.8,2.4,31.7,4.1,47.5c2.7,26.1,4.8,52.4,8.7,78.3
		c3.4,23.2,8,46.1,13.9,68.8c2.9,11.4,9.8,12.2,16.7,2.4c7.2-10.3,12.4-22,18.6-33c10-17.7,23-21.9,41.6-13.6
		C316.6,768.7,318.3,769.6,322.1,771.4z M724.7,698.8c8.7-9.4,15.8-16.6,22.3-24.2c5.3-6.1,10.7-4.9,17-2.1
		c14.5,6.5,24.1,17.5,30.6,31.8c9.6,21.2,26.8,35.7,45.4,48.2c10.8,7.3,24.6,10.1,36.5,3.6c12.5-6.7,11.1-20.5,9.8-32.4
		c-3.5-34.1-17-63.3-42.7-87c-22.9-21.2-44.5-43.5-66.8-65.2C758,553.3,747,531.5,746.3,505c-0.2-7.8-3.8-10.2-11.4-10
		c-15.6,0.6-19.1,4.2-17.1,19.5c3,22.9,7.9,45.8,8.8,68.8c1,25.8-1.8,51.7-2.6,77.6C723.7,673.2,724.4,685.6,724.7,698.8
		L724.7,698.8z M368.7,711.6c0,0,4.1,49.9,5.6,71.8c0.7,10.8,6.9,12.8,15.5,6.4c2.2-1.8,4.2-3.7,6-5.8
		c31.5-32.8,29.7-74.2,28.5-114.9c-0.6-21-4.5-41.9-7-62.9c-3.2-26.1-6.5-52.1-10-78.2c-1.1-8.5-5.6-17-14.4-16.5
		c-6.7,0.4-14.1,5.8-19.2,11c-3.4,3.4-4.7,10.2-4.7,15.5C368.6,595.9,368.7,653.8,368.7,711.6z M174,247.6
		c13.3-13.7,26.8-23.4,27.4-41.2c0.8-26.7-8.4-49.9-27.1-69c-2.5-2.6-6.6-3.7-10-5.5c-1,3.6-3.2,7.2-3,10.6
		c2.2,30.2,4.8,60.4,7.6,90.5C169.2,237.1,171.5,240.9,174,247.6z M410,301.8c-2.7-30.5-2.7-30.1-33.1-32.6
		c-9.1-0.8-11.5,2.5-8.2,10c7,15.9,14.1,31.8,22.4,47.1C394.4,332.2,410.6,308.2,410,301.8z"/>
	<path class="st0" d="M728.3,111.1c11.1-8.5,20.5-17,31.2-23.4c13.7-8.2,23.6-5.9,31.5,7.5c13.9,23.7,27,48,39.5,72.5
		c10.3,20.2,19,41.2,28.8,61.7c2.7,5.6,6.7,10.5,10.2,15.7l3.5-0.4c2-14.4,4-28.7,6.1-43.1c3.7-26,8.9-52,10.7-78.1
		c1.6-23.7-0.4-47.7-1.2-71.5c-0.5-15.8,5.5-28.1,18.9-36.1c7.2-4.3,15.1-10.7,22.5-10.4c17.9,0.7,27,17.6,23,35.3
		c-2.3,10.3-1.3,21.3-2.4,32c-4.6,45.2-9.5,90.4-14,135.6c-2.8,28.5-4.2,57.3-7.8,85.7c-4.2,32.4-9.3,64.7-15.8,96.7
		c-1.9,9.6-9,19.6-21.2,19.8c-14.7,0.2-32,4-39-14.8c-5.5-14.7-7.8-30.6-13.3-45.3c-9.2-24.2-19.9-47.8-30.1-71.6
		c-1-2.4-3.3-4.3-5-6.4l-3.7,0.7c-1.8,9.5-4.2,19-5.1,28.5c-2.1,21-2.7,42.2-5.3,63.2c-2.6,20.8-16.2,30.3-37.1,25.1
		c-12.5-3.1-17.4-10.9-17.1-23.8c0.3-12.6,0.1-25.2,0.1-37.8l-3.7-1.6c-3.3,7.3-6.4,14.7-10,21.8c-5.6,11.2-10.2,23.4-17.6,33.3
		c-12.6,16.8-36,21.3-54.5,11.4c-9.4-5-17.8-11.9-26.4-18.4c-10.7-8-16.9-7.9-26.1,2c-8.6,9.3-19.9,5.7-30.2,7.1
		c-11.4,1.5-22.8,3.3-34.1,5.1c-1.9,0.3-4.7,0.9-5.4,2.2c-9,18-25.7,13.6-40.7,14.1c-8.9,0.3-14-5.8-13.5-14
		c1.5-29.4,3.7-58.9,3.3-88.3c-0.5-31-3.3-62-6-92.9c-1.6-16.7-4.2-33.2-7.8-49.6c-1-4.8-5.4-9.5-9.5-12.8
		c-9.9-7.8-11.2-16.8-3.1-26.6c13-15.8,29.5-23,50-23.7c13.8-0.5,27.6-3.6,41.2-6.2c18.1-3.4,25.8,0.5,28.6,15.8
		s-7.5,31.2-21.9,33.4c-4.7,0.7-9.5,1.5-14.2,2.4c-18.1,3.7-17.7,3.7-16,21.5c1.5,15.1,1.8,30.3,3,45.4c1,13.4,4.4,15.9,17.5,13.1
		c7-1.3,14-3.2,20.7-5.6c8.8-3.4,14.3,1.4,18.1,7.5c8.2,13.2,4.6,44.2-18.8,46.6c-7.9,0.8-15.9,1.6-23.4,4c-3.5,1.1-7.9,5.7-8.2,9
		c-0.9,13.5-0.4,27.2-0.3,40.8c0,8,3.4,11.7,12,10.2c16.4-2.7,32.8-5,49.3-7.1c7.3-1,9.1-5.4,9-11.7c-0.5-40.3-2.2-80.7-1-120.9
		c0.7-22,5.4-44.1,10.2-65.7c3.9-17.4,10.6-33.9,23.6-47.5c11.8-12.4,25.3-20.9,42-22.5s27.1,10,36.2,21.9c5.3,6.9,9.2,15,13.9,22.3
		C724.3,106.8,726.2,109,728.3,111.1z M662.5,121.2c-3.1,5.7-6.1,8.9-6.5,12.4c-2.8,21.2-7.2,42.6-7.1,63.9c0.2,39.4,3.2,78.7,5,118
		c0.2,5.6,18.1,19.7,23,17.6c1.9-0.9,3.6-3.2,4.4-5.2c1.3-3.3,1.8-6.9,2.5-10.5c10.2-46.9,3.4-93.8-1.2-140.5
		C680.7,158.1,676.3,139.4,662.5,121.2z"/>
</g>
</svg>
